<svg xmlns="http://www.w3.org/2000/svg" viewBox="0 0 8 7" shape-rendering="crispEdges">
  <rect width="8" height="7" fill="#EAF8FF"/>
  <rect x="1" y="0" width="2" height="1" fill="#232323"/><rect x="5" y="0" width="2" height="1" fill="#232323"/>
  <rect x="0" y="1" width="2" height="1" fill="#232323"/><rect x="2" y="1" width="2" height="1" fill="#232323"/><rect x="4" y="1" width="2" height="1" fill="#232323"/><rect x="6" y="1" width="2" height="1" fill="#232323"/>
  <rect x="1" y="1" width="1" height="1" fill="#ffffff"/><rect x="5" y="1" width="1" height="1" fill="#ffffff"/>
  <rect x="0" y="2" width="1" height="1" fill="#232323"/><rect x="1" y="2" width="1" height="1" fill="#ffffff"/><rect x="2" y="2" width="1" height="1" fill="#ffc2cf"/><rect x="3" y="2" width="2" height="1" fill="#ffffff"/><rect x="5" y="2" width="1" height="1" fill="#ffc2cf"/><rect x="6" y="2" width="1" height="1" fill="#ffffff"/><rect x="7" y="2" width="1" height="1" fill="#232323"/>
  <rect x="0" y="3" width="1" height="1" fill="#232323"/><rect x="1" y="3" width="1" height="1" fill="#ffffff"/><rect x="2" y="3" width="1" height="1" fill="#232323"/><rect x="3" y="3" width="2" height="1" fill="#ffffff"/><rect x="5" y="3" width="1" height="1" fill="#232323"/><rect x="6" y="3" width="1" height="1" fill="#ffffff"/><rect x="7" y="3" width="1" height="1" fill="#232323"/>
  <rect x="0" y="4" width="1" height="1" fill="#232323"/><rect x="1" y="4" width="2" height="1" fill="#ffffff"/><rect x="3" y="4" width="2" height="1" fill="#f78ca0"/><rect x="5" y="4" width="2" height="1" fill="#ffffff"/><rect x="7" y="4" width="1" height="1" fill="#232323"/>
  <rect x="0" y="5" width="1" height="1" fill="#232323"/><rect x="1" y="5" width="6" height="1" fill="#ffffff"/><rect x="7" y="5" width="1" height="1" fill="#232323"/>
  <rect x="1" y="6" width="6" height="1" fill="#232323"/>
</svg>
